#!OML:ASF E:\acrobat2\Project_11_07_03\Capture day 1\Session 1\Acrobat.ASF
:FULLY-SPECIFIED
:DEGREES
587
root 14.6867 6.07865 17.9249 -139.574 45.929 -19.185
lowerback 35.3834 0.56427 -3.01337
upperback 15.376 0.690262 -3.6577
thorax -0.894218 0.902523 -2.46109
lowerneck -0.694416 -2.2611 1.12977
upperneck 16.6385 -2.98228 -0.670564
head 5.08313 -1.39636 -0.528068
rclavicle -2.06736e-014 8.54774e-014
rhumerus -14.2463 -25.8243 8.6076
rradius 19.3118
rwrist 22.1602
rhand -4.35803 -61.8177
rfingers 7.12502
rthumb 21.4101 -269.345
lclavicle -2.06736e-014 8.54774e-014
lhumerus 12.9913 -33.5864 -19.884
lradius 21.9076
lwrist 368.693
lhand 10.5254 3.5161
lfingers 7.12502
lthumb 35.6245 29.924
rfemur -99.5351 -12.0695 6.02081
rtibia 57.1021
rfoot 3.48191 -5.57233
rtoes 13.486
lfemur -100.454 11.0919 -20.3186
ltibia 61.0283
lfoot 10.0361 -1.31703
ltoes -6.98654
588
root 14.6811 6.08223 17.9299 -139.78 45.9901 -19.4189
lowerback 35.3739 0.59168 -3.22335
upperback 15.3733 0.651515 -3.70009
thorax -0.89152 0.870319 -2.38314
lowerneck -0.719589 -2.19009 0.903336
upperneck 16.534 -2.88284 -0.59296
head 5.06042 -1.35724 -0.461562
rclavicle -3.18055e-015 -6.75868e-015
rhumerus -14.0084 -20.6394 8.28661
rradius 19.1828
rwrist 16.8987
rhand -5.14058 -62.6271
rfingers 7.12502
rthumb 20.6583 -268.452
lclavicle -3.18055e-015 -6.75868e-015
lhumerus 13.0036 -33.6713 -20.0155
lradius 21.9056
lwrist 368.688
lhand 10.1634 3.45589
lfingers 7.12502
lthumb 35.2813 29.9458
rfemur -99.6243 -12.1907 5.73434
rtibia 57.0618
rfoot 3.47741 -5.64943
rtoes 14.5434
lfemur -100.549 10.8841 -20.4496
ltibia 60.9996
lfoot 9.75698 -1.28677
ltoes -6.75731
589
root 14.6724 6.08829 17.9325 -139.91 46.0904 -19.6352
lowerback 35.2574 0.653544 -3.46238
upperback 15.3957 0.657011 -3.75503
thorax -0.823276 0.859812 -2.31462
lowerneck -0.998335 -2.18602 0.597097
upperneck 16.7609 -2.90423 -0.316114
head 5.18673 -1.36766 -0.331581
rclavicle 0 -6.83819e-014
rhumerus -14.1568 -22.2892 8.43262
rradius 19.3833
rwrist 18.4923
rhand -4.6034 -62.4326
rfingers 7.12502
rthumb 21.1744 -268.704
lclavicle 0 -6.83819e-014
lhumerus 13.0668 -33.712 -20.1527
lradius 21.8786
lwrist 368.72
lhand 9.76858 3.36768
lfingers 7.12502
lthumb 34.9068 29.9455
rfemur -99.7909 -12.275 5.45872
rtibia 57.0218
rfoot 3.52836 -5.66947
rtoes 14.491
lfemur -100.709 10.7245 -20.5852
ltibia 60.9647
lfoot 9.42292 -1.20058
ltoes -6.80011
590
root 14.6624 6.09845 17.9281 -139.893 46.207 -19.7095
lowerback 35.0863 0.705011 -3.53745
upperback 15.3909 0.706135 -3.86605
thorax -0.767488 0.884856 -2.40351
lowerneck -0.981724 -2.26523 0.954769
upperneck 16.7524 -2.98479 -0.670764
head 5.16952 -1.40918 -0.504397
rclavicle 7.95139e-015 1.06151e-013
rhumerus -14.286 -17.5579 8.13456
rradius 19.5673
rwrist 13.6766
rhand -5.29801 -62.9365
rfingers 7.12502
rthumb 20.5071 -268.127
lclavicle 7.95139e-015 1.06151e-013
lhumerus 13.0737 -33.3068 -20.0704
lradius 21.8247
lwrist 368.322
lhand 9.51463 3.2706
lfingers 7.12502
lthumb 34.6658 29.904
rfemur -99.9901 -12.3054 5.24684
rtibia 56.9763
rfoot 3.44152 -5.6557
rtoes 15.1744
lfemur -100.97 10.6898 -20.827
ltibia 60.957
lfoot 9.34744 -1.27747
ltoes -8.21131
591
root 14.656 6.11311 17.9253 -140.555 46.6792 -20.6185
lowerback 34.9773 0.82794 -4.16235
upperback 15.4266 0.668966 -4.11384
thorax -0.678992 0.84146 -2.32171
lowerneck -0.433045 -2.31423 1.80086
upperneck 15.9549 -2.95491 -1.65191
head 4.80106 -1.41116 -0.931037
rclavicle -1.1291e-013 7.11649e-014
rhumerus -14.5334 -24.09 8.68751
rradius 19.6665
rwrist 20.272
rhand -5.26721 -62.0736
rfingers 7.12502
rthumb 20.5367 -268.993
lclavicle -1.1291e-013 7.11649e-014
lhumerus 12.9854 -32.529 -19.795
lradius 21.7595
lwrist 367.599
lhand 9.33598 3.17891
lfingers 7.12502
lthumb 34.4963 29.8511
rfemur -100.173 -12.5832 4.46147
rtibia 56.9629
rfoot 3.59561 -5.63769
rtoes 14.3879
lfemur -101.107 10.4877 -21.798
ltibia 60.9513
lfoot 9.51166 -1.40483
ltoes -8.36286
592
root 14.6485 6.115 17.9136 -140.345 46.5599 -20.3535
lowerback 34.8784 0.769684 -3.84302
upperback 15.4284 0.704932 -4.14384
thorax -0.648778 0.880684 -2.52932
lowerneck -0.0659495 -2.19384 0.851925
upperneck 15.0187 -2.93349 -0.218118
head 5.00056 -1.37429 -0.348968
rclavicle -3.65764e-014 -7.59357e-014
rhumerus -14.4961 -23.1345 8.63858
rradius 19.4571
rwrist 19.3034
rhand -5.10855 -61.8743
rfingers 7.12502
rthumb 20.6891 -269.208
lclavicle -3.65764e-014 -7.59357e-014
lhumerus 13.3841 -32.9258 -20.2841
lradius 21.8063
lwrist 368.159
lhand 9.19202 3.24362
lfingers 7.12502
lthumb 34.3596 29.9468
rfemur -100.285 -12.6733 4.71819
rtibia 56.9617
rfoot 3.70542 -5.5591
rtoes 12.8637
lfemur -101.263 10.3801 -21.5637
ltibia 60.9477
lfoot 9.56307 -1.24378
ltoes -6.48179
593
root 14.6426 6.12378 17.9108 -140.62 46.6565 -20.5775
lowerback 34.8938 0.816242 -3.90915
upperback 15.4629 0.754499 -4.23393
thorax -0.613325 0.911691 -2.60422
lowerneck -0.595558 -2.28587 1.54585
upperneck 16.13 -2.97427 -1.15495
head 4.89478 -1.40451 -0.740391
rclavicle -6.83819e-014 -5.92378e-014
rhumerus -14.6775 -23.9347 8.74386
rradius 19.4011
rwrist 20.0303
rhand -6.19997 -62.1781
rfingers 7.12502
rthumb 19.6401 -268.794
lclavicle -6.83819e-014 -5.92378e-014
lhumerus 13.3256 -32.1341 -19.9153
lradius 21.7857
lwrist 367.355
lhand 9.09546 3.15505
lfingers 7.12502
lthumb 34.2679 29.8789
rfemur -100.327 -12.8087 4.49261
rtibia 56.9911
rfoot 3.73547 -5.55535
rtoes 12.7235
lfemur -101.305 10.2547 -21.8797
ltibia 60.9587
lfoot 9.60098 -1.19354
ltoes -6.37493
594
root 14.6354 6.13202 17.9146 -140.577 46.5332 -20.4118
lowerback 34.9398 0.794287 -3.6443
upperback 15.4348 0.812826 -4.29648
thorax -0.662708 0.963977 -2.82799
lowerneck -0.958063 -2.20675 0.476502
upperneck 16.7533 -3.03613 0.417098
head 5.19119 -1.39355 -0.0896549
rclavicle 3.81667e-014 -1.98785e-015
rhumerus -14.5928 -15.9751 8.20961
rradius 19.3232
rwrist 11.9884
rhand -6.09188 -63.1241
rfingers 7.12502
rthumb 19.744 -267.859
lclavicle 3.81667e-014 -1.98785e-015
lhumerus 13.5951 -32.0792 -20.1361
lradius 21.7898
lwrist 367.285
lhand 8.9054 3.09348
lfingers 7.12502
lthumb 34.0874 29.8578
rfemur -100.352 -12.8333 4.53351
rtibia 56.9958
rfoot 3.62786 -5.72524
rtoes 13.199
lfemur -101.451 10.2002 -21.8675
ltibia 60.9879
lfoot 9.71419 -1.34086
ltoes -7.93252
595
root 14.6293 6.13528 17.9201 -140.403 46.3814 -20.0851
lowerback 34.8744 0.775062 -3.34752
upperback 15.4854 0.8993 -4.34474
thorax -0.586697 1.03243 -3.05887
lowerneck 0.220093 -2.22871 1.25081
upperneck 14.7316 -2.97658 -0.360734
head 4.82585 -1.3844 -0.461845
rclavicle -9.54166e-015 1.1609e-013
rhumerus -14.6686 -17.7053 8.21739
rradius 19.1889
rwrist 13.6399
rhand -7.07456 -63.1892
rfingers 7.12502
rthumb 18.7991 -267.699
lclavicle -9.54166e-015 1.1609e-013
lhumerus 14.0254 -32.4577 -20.7404
lradius 21.8152
lwrist 367.899
lhand 8.65956 3.11489
lfingers 7.12502
lthumb 33.8539 29.931
rfemur -100.369 -12.7737 4.62744
rtibia 56.9729
rfoot 3.47155 -5.83108
rtoes 13.3175
lfemur -101.594 10.1683 -21.6095
ltibia 61.0156
lfoot 9.72108 -1.44888
ltoes -8.39911
596
root 14.6219 6.14276 17.922 -140.315 46.3266 -19.8738
lowerback 34.8568 0.808869 -3.27405
upperback 15.5057 0.974131 -4.34762
thorax -0.556815 1.07774 -3.12276
lowerneck -0.31506 -2.22163 0.808058
upperneck 15.7284 -3.02027 0.110941
head 4.75651 -1.39852 -0.222829
rclavicle 2.8625e-014 -8.94531e-014
rhumerus -14.599 -15.2372 8.01645
rradius 19.1887
rwrist 11.2876
rhand -6.6752 -62.8289
rfingers 7.12502
rthumb 19.1832 -268.097
lclavicle 2.8625e-014 -8.94531e-014
lhumerus 14.6245 -33.6188 -21.7644
lradius 21.9559
lwrist 369.417
lhand 8.41846 3.37439
lfingers 7.12502
lthumb 33.6248 30.2407
rfemur -100.387 -12.7244 4.58316
rtibia 56.9445
rfoot 3.24809 -5.90792
rtoes 13.5174
lfemur -101.729 10.1732 -21.577
ltibia 61.0514
lfoot 9.71162 -1.59141
ltoes -8.49693
597
root 14.6128 6.15762 17.9229 -140.325 46.3602 -19.8481
lowerback 34.8057 0.851495 -3.2997
upperback 15.5225 1.02826 -4.40142
thorax -0.518063 1.10831 -3.1809
lowerneck -0.0107724 -2.1574 0.485461
upperneck 14.7951 -2.98053 0.658219
head 4.92835 -1.37521 0.0150984
rclavicle 4.13472e-014 -3.45885e-014
rhumerus -14.6312 -14.7589 7.99497
rradius 19.2433
rwrist 11.029
rhand -6.46342 -62.9337
rfingers 7.12502
rthumb 19.3868 -268.013
lclavicle 4.13472e-014 -3.45885e-014
lhumerus 14.5119 -33.0124 -21.4994
lradius 21.9432
lwrist 368.763
lhand 8.35692 3.41515
lfingers 7.12502
lthumb 33.5663 30.2941
rfemur -100.46 -12.7351 4.42831
rtibia 56.9386
rfoot 3.0523 -5.97449
rtoes 14.0064
lfemur -101.887 10.1654 -21.7226
ltibia 61.0868
lfoot 9.66366 -1.70046
ltoes -8.47073
598
root 14.6037 6.17069 17.9254 -140.492 46.5158 -20.0101
lowerback 34.7804 0.95979 -3.51072
upperback 15.5297 1.10858 -4.47163
thorax -0.494887 1.14328 -3.16757
lowerneck -0.639465 -2.23052 0.690958
upperneck 16.0275 -3.06228 0.315119
head 4.90815 -1.41068 -0.14882
rclavicle 6.04305e-014 -5.20816e-014
rhumerus -14.7409 -15.1057 8.0565
rradius 19.3502
rwrist 11.4175
rhand -6.33116 -63.3091
rfingers 7.12502
rthumb 19.514 -267.65
lclavicle 6.04305e-014 -5.20816e-014
lhumerus 15.2158 -34.1863 -22.6116
lradius 22.0944
lwrist 370.201
lhand 8.23877 3.59089
lfingers 7.12502
lthumb 33.454 30.4942
rfemur -100.583 -12.7974 4.24893
rtibia 56.9583
rfoot 3.23019 -6.05262
rtoes 11.8128
lfemur -101.986 10.1461 -22.0144
ltibia 61.1032
lfoot 9.63873 -1.72553
ltoes -8.86351
599
root 14.594 6.18004 17.9283 -140.719 46.624 -20.2608
lowerback 34.7881 1.05376 -3.73671
upperback 15.5446 1.16457 -4.50599
thorax -0.475656 1.16297 -3.10204
lowerneck -0.738473 -2.24413 0.631928
upperneck 16.186 -3.08437 0.345306
head 4.97509 -1.42142 -0.133188
rclavicle -1.59028e-014 6.63941e-014
rhumerus -14.8586 -15.6271 8.14743
rradius 19.4703
rwrist 11.8055
rhand -6.29943 -63.5167
rfingers 7.12502
rthumb 19.5445 -267.446
lclavicle -1.59028e-014 6.63941e-014
lhumerus 14.7274 -32.5167 -21.4745
lradius 21.916
lwrist 368.276
lhand 8.26715 3.40394
lfingers 7.12502
lthumb 33.481 30.3014
rfemur -100.711 -12.9598 4.1035
rtibia 56.9871
rfoot 3.40169 -5.98476
rtoes 10.2999
lfemur -102.094 10.0839 -22.4628
ltibia 61.0912
lfoot 9.70272 -1.79712
ltoes -9.68972
600
root 14.5858 6.18361 17.9292 -140.593 46.4215 -20.153
lowerback 34.7941 0.992129 -3.5198
upperback 15.4927 1.14603 -4.52578
thorax -0.537915 1.16514 -3.2321
lowerneck -0.488281 -2.21332 0.753525
upperneck 15.9323 -3.04431 0.356187
head 4.8532 -1.39668 -0.142983
rclavicle -5.40694e-014 1.18078e-013
rhumerus -14.9759 -16.5304 8.13641
rradius 19.5926
rwrist 12.6633
rhand -6.66162 -62.8991
rfingers 7.12502
rthumb 19.1962 -268.028
lclavicle -5.40694e-014 1.18078e-013
lhumerus 14.6357 -31.894 -21.1996
lradius 21.8644
lwrist 367.589
lhand 8.32241 3.37083
lfingers 7.12502
lthumb 33.5335 30.2569
rfemur -100.829 -13.1463 4.25024
rtibia 57.0061
rfoot 3.42435 -5.92718
rtoes 10.8974
lfemur -102.302 9.94347 -22.4225
ltibia 61.0491
lfoot 9.78438 -1.72886
ltoes -8.1503
601
root 14.58 6.18621 17.928 -140.234 46.0927 -19.7447
lowerback 34.7253 0.876536 -3.03064
upperback 15.4432 1.1492 -4.5498
thorax -0.5741 1.19432 -3.5148
lowerneck -0.32445 -2.20448 1.02533
upperneck 15.7967 -3.03433 0.29881
head 4.77909 -1.38087 -0.201921
rclavicle -7.63333e-014 -1.08536e-013
rhumerus -15.142 -17.1781 8.04383
rradius 19.7361
rwrist 13.3419
rhand -6.44292 -62.3987
rfingers 7.12502
rthumb 19.4065 -268.55
lclavicle -7.63333e-014 -1.08536e-013
lhumerus 14.9819 -32.2018 -21.7615
lradius 21.9498
lwrist 368.008
lhand 8.41034 3.48477
lfingers 7.12502
lthumb 33.6171 30.3527
rfemur -100.918 -13.2706 4.60785
rtibia 56.9973
rfoot 3.3766 -5.92324
rtoes 11.9089
lfemur -102.538 9.81274 -21.9928
ltibia 61.0238
lfoot 9.80335 -1.62877
ltoes -6.50419
